<?xml version="1.0" encoding="UTF-8" standalone="no"?>
<!-- Created with Inkscape (http://www.inkscape.org/) -->

<svg
   width="118.76796mm"
   height="104.67181mm"
   viewBox="0 0 118.76796 104.67181"
   version="1.1"
   id="svg1"
   inkscape:version="1.4.2 (ebf0e940, 2025-05-08)"
   sodipodi:docname="elemental-microscopy-logo.svg"
   xmlns:inkscape="http://www.inkscape.org/namespaces/inkscape"
   xmlns:sodipodi="http://sodipodi.sourceforge.net/DTD/sodipodi-0.dtd"
   xmlns="http://www.w3.org/2000/svg"
   xmlns:svg="http://www.w3.org/2000/svg">
  <sodipodi:namedview
     id="namedview1"
     pagecolor="#ffffff"
     bordercolor="#000000"
     borderopacity="0.25"
     inkscape:showpageshadow="2"
     inkscape:pageopacity="0.0"
     inkscape:pagecheckerboard="0"
     inkscape:deskcolor="#d1d1d1"
     inkscape:document-units="mm"
     inkscape:zoom="0.37059484"
     inkscape:cx="361.58086"
     inkscape:cy="708.32072"
     inkscape:window-width="1472"
     inkscape:window-height="890"
     inkscape:window-x="0"
     inkscape:window-y="38"
     inkscape:window-maximized="0"
     inkscape:current-layer="layer1" />
  <defs
     id="defs1">
    <clipPath
       clipPathUnits="userSpaceOnUse"
       id="clipPath5">
      <path
         d="M 0,360 H 403.2 V 0 H 0 Z"
         transform="translate(-265.2724,-307.33141)"
         id="path5" />
    </clipPath>
    <clipPath
       clipPathUnits="userSpaceOnUse"
       id="clipPath7">
      <path
         d="M 0,360 H 403.2 V 0 H 0 Z"
         transform="translate(-345.99851,-232.74331)"
         id="path7" />
    </clipPath>
    <clipPath
       clipPathUnits="userSpaceOnUse"
       id="clipPath11">
      <path
         d="M 0,360 H 403.2 V 0 H 0 Z"
         transform="translate(-114.1879,-132.7428)"
         id="path11" />
    </clipPath>
    <clipPath
       clipPathUnits="userSpaceOnUse"
       id="clipPath13">
      <path
         d="M 0,360 H 403.2 V 0 H 0 Z"
         transform="translate(-148.6933,-140.79261)"
         id="path13" />
    </clipPath>
    <clipPath
       clipPathUnits="userSpaceOnUse"
       id="clipPath15">
      <path
         d="M 0,360 H 403.2 V 0 H 0 Z"
         transform="translate(-223.03161,-132.7428)"
         id="path15" />
    </clipPath>
    <clipPath
       clipPathUnits="userSpaceOnUse"
       id="clipPath17">
      <path
         d="M 0,360 H 403.2 V 0 H 0 Z"
         transform="translate(-257.34811,-140.79261)"
         id="path17" />
    </clipPath>
    <clipPath
       clipPathUnits="userSpaceOnUse"
       id="clipPath19">
      <path
         d="M 0,360 H 403.2 V 0 H 0 Z"
         transform="translate(-303.72011,-150.84531)"
         id="path19" />
    </clipPath>
    <clipPath
       clipPathUnits="userSpaceOnUse"
       id="clipPath21">
      <path
         d="M 0,360 H 403.2 V 0 H 0 Z"
         transform="translate(-331.46041,-107.4967)"
         id="path21" />
    </clipPath>
    <clipPath
       clipPathUnits="userSpaceOnUse"
       id="clipPath23">
      <path
         d="M 0,360 H 403.2 V 0 H 0 Z"
         id="path23" />
    </clipPath>
    <clipPath
       clipPathUnits="userSpaceOnUse"
       id="clipPath25">
      <path
         d="M 0,360 H 403.2 V 0 H 0 Z"
         transform="translate(-42.748401,-58.532799)"
         id="path25" />
    </clipPath>
    <clipPath
       clipPathUnits="userSpaceOnUse"
       id="clipPath27">
      <path
         d="M 0,360 H 403.2 V 0 H 0 Z"
         id="path27" />
    </clipPath>
    <clipPath
       clipPathUnits="userSpaceOnUse"
       id="clipPath29">
      <path
         d="M 0,360 H 403.2 V 0 H 0 Z"
         transform="translate(-121.2372,-45.265201)"
         id="path29" />
    </clipPath>
    <clipPath
       clipPathUnits="userSpaceOnUse"
       id="clipPath31">
      <path
         d="M 0,360 H 403.2 V 0 H 0 Z"
         transform="translate(-149.8651,-68.370699)"
         id="path31" />
    </clipPath>
    <clipPath
       clipPathUnits="userSpaceOnUse"
       id="clipPath33">
      <path
         d="M 0,360 H 403.2 V 0 H 0 Z"
         transform="translate(-172.84371,-70.859004)"
         id="path33" />
    </clipPath>
    <clipPath
       clipPathUnits="userSpaceOnUse"
       id="clipPath35">
      <path
         d="M 0,360 H 403.2 V 0 H 0 Z"
         transform="translate(-217.26111,-52.771104)"
         id="path35" />
    </clipPath>
    <clipPath
       clipPathUnits="userSpaceOnUse"
       id="clipPath37">
      <path
         d="M 0,360 H 403.2 V 0 H 0 Z"
         transform="translate(-247.87251,-45.265201)"
         id="path37" />
    </clipPath>
    <clipPath
       clipPathUnits="userSpaceOnUse"
       id="clipPath39">
      <path
         d="M 0,360 H 403.2 V 0 H 0 Z"
         transform="translate(-276.91351,-70.859004)"
         id="path39" />
    </clipPath>
    <clipPath
       clipPathUnits="userSpaceOnUse"
       id="clipPath41">
      <path
         d="M 0,360 H 403.2 V 0 H 0 Z"
         transform="translate(-313.25331,-70.116804)"
         id="path41" />
    </clipPath>
    <clipPath
       clipPathUnits="userSpaceOnUse"
       id="clipPath43">
      <path
         d="M 0,360 H 403.2 V 0 H 0 Z"
         transform="translate(-99.3205,-90.000002)"
         id="path43" />
    </clipPath>
    <clipPath
       clipPathUnits="userSpaceOnUse"
       id="clipPath45">
      <path
         d="M 0,360 H 403.2 V 0 H 0 Z"
         id="path45" />
    </clipPath>
  </defs>
  <g
     inkscape:label="Layer 1"
     inkscape:groupmode="layer"
     id="layer1"
     transform="translate(3429.2645,2576.7771)">
    <path
       id="path1"
       d="m -3377.3517,-2539.345 1.88,6.4703 -51.7631,15.0386 -1.8796,-6.4703 z"
       style="fill:#ffffff;fill-opacity:1;fill-rule:nonzero;stroke:none;stroke-width:0.352778" />
    <path
       id="path2"
       d="m -3366.0286,-2542.6346 1.88,6.4703 -6.4707,1.8799 -1.8796,-6.4702 z"
       style="fill:#ffffff;fill-opacity:1;fill-rule:nonzero;stroke:none;stroke-width:0.352778" />
    <path
       id="path3"
       d="m -3367.2702,-2540.8706 1.1278,3.8823 -12.9406,3.7596 -1.1278,-3.8823 z"
       style="fill:#ffffff;fill-opacity:1;fill-rule:nonzero;stroke:none;stroke-width:0.352778" />
    <path
       id="path4"
       d="m 0,0 c 35.453,10.3 72.544,-10.09 82.844,-45.544 10.3,-35.453 -10.09,-72.544 -45.544,-82.844 -35.453,-10.3 -72.544,10.09 -82.844,45.544 C -55.844,-47.391 -35.453,-10.3 0,0 m -63.885,-88.173 c 13.243,-45.583 60.931,-71.799 106.514,-58.556 45.583,13.243 71.799,60.931 58.556,106.514 C 87.942,5.368 40.254,31.584 -5.329,18.341 -50.912,5.098 -77.128,-42.59 -63.885,-88.173"
       style="fill:#ffffff;fill-opacity:1;fill-rule:nonzero;stroke:none"
       transform="matrix(0.35277776,0,0,-0.35277776,-3347.4042,-2569.095)"
       clip-path="url(#clipPath5)" />
    <path
       id="path6"
       d="m 0,0 c -0.45,-0.762 -0.949,-2.225 -1.216,-3.527 -0.979,-1.521 -1.531,-2.324 -2.747,-3.983 -0.013,0.89 -0.452,0.992 -1.166,0.073 -0.127,-0.163 -0.255,-0.355 -0.382,-0.559 -0.39,1.202 -0.609,1.83 -1.13,3.149 0.354,0.88 0.601,1.809 0.665,2.607 0.063,0.798 -0.068,1.315 -0.337,1.52 0.867,2.995 1.378,4.478 1.822,7.279 0.12,0.072 0.239,0.163 0.358,0.295 0.67,0.738 1.078,2.17 1.038,3.488 1.035,1.205 1.467,1.763 2.178,2.777 0.29,-0.896 0.732,-1.166 1.042,-0.627 0.055,0.096 0.102,0.217 0.142,0.347 C 0.838,11.572 0.907,10.932 1.2,9.713 1.115,9.075 1.055,8.347 1.059,7.696 1.063,7.045 1.135,6.602 1.25,6.409 0.969,4.08 0.761,2.852 0.222,0.313 0.153,0.234 0.08,0.136 0,0 m -7.021,-13.584 c -1.052,-2.864 -1.614,-4.286 -2.764,-6.995 -0.124,-0.112 -0.256,-0.245 -0.402,-0.415 -0.818,-0.954 -1.69,-2.508 -2.147,-3.728 -1.548,-1.712 -2.352,-2.562 -3.998,-4.216 -0.033,0.672 -0.656,0.612 -1.591,-0.295 -0.166,-0.162 -0.331,-0.343 -0.494,-0.533 -0.562,0.807 -0.879,1.251 -1.63,2.242 0.435,0.812 0.741,1.67 0.803,2.392 0.062,0.723 -0.135,1.168 -0.514,1.301 1.098,2.933 1.65,4.491 2.735,7.669 0.178,0.107 0.361,0.237 0.552,0.413 1.075,0.985 1.991,2.746 2.328,4.316 1.916,1.79 2.819,2.683 4.488,4.418 0.144,-1.022 0.802,-1.135 1.641,-0.195 0.149,0.168 0.295,0.364 0.437,0.573 0.54,-1.31 0.766,-1.932 1.168,-3.12 -0.363,-0.866 -0.652,-1.778 -0.771,-2.525 -0.12,-0.747 -0.048,-1.183 0.159,-1.302 m -16.027,-25.153 c -0.151,-0.071 -0.31,-0.153 -0.481,-0.255 -0.965,-0.573 -1.9,-1.43 -2.318,-2.03 -1.738,-0.969 -2.615,-1.431 -4.384,-2.311 -0.165,0.277 -0.946,0.205 -1.949,-0.271 -0.179,-0.085 -0.351,-0.179 -0.519,-0.275 -0.868,0.329 -1.353,0.543 -2.458,1.078 0.4,0.43 0.642,0.895 0.607,1.301 -0.035,0.407 -0.346,0.673 -0.833,0.764 0.933,1.682 1.424,2.622 2.444,4.719 0.213,0.064 0.429,0.143 0.652,0.254 1.252,0.621 2.261,1.809 2.559,2.951 2.331,1.238 3.562,1.799 5.69,3.255 0.269,-0.824 1.16,-0.895 2.266,-0.103 0.196,0.141 0.387,0.307 0.574,0.483 0.842,-1.052 1.096,-1.374 1.671,-2.132 -0.433,-0.721 -0.752,-1.429 -0.864,-1.961 -0.112,-0.531 0.003,-0.789 0.269,-0.807 -1.171,-2.111 -1.69,-3.153 -2.926,-4.66 m -13.101,-8.854 c -0.142,-0.054 -0.29,-0.111 -0.445,-0.175 -0.873,-0.356 -1.611,-0.731 -1.857,-0.872 -1.562,-0.602 -2.347,-0.888 -3.93,-1.43 -0.279,-0.051 -1.086,-0.238 -1.983,-0.526 -0.16,-0.051 -0.31,-0.102 -0.454,-0.152 -1.029,-0.141 -1.603,-0.157 -2.898,-0.077 0.283,0.191 0.396,0.384 0.246,0.544 -0.151,0.159 -0.542,0.253 -1.062,0.267 0.494,0.79 0.749,1.256 1.294,2.358 0.201,0.037 0.403,0.083 0.605,0.145 1.135,0.35 1.901,0.989 1.962,1.611 2.138,0.713 3.197,1.099 5.293,1.926 0.447,-0.436 1.445,-0.434 2.539,0.028 0.194,0.082 0.378,0.177 0.556,0.277 1.127,-0.494 1.622,-0.687 2.507,-0.974 -0.389,-0.346 -0.628,-0.668 -0.641,-0.887 -0.013,-0.219 0.198,-0.295 0.538,-0.259 -0.941,-0.893 -1.391,-1.25 -2.27,-1.804 m -14.272,-2.652 c -1.074,-0.28 -1.718,-0.727 -1.667,-1.045 -1.921,-0.463 -2.89,-0.673 -4.844,-1.048 -0.705,0.191 -1.973,0.246 -3.08,0.065 -0.197,-0.032 -0.371,-0.071 -0.533,-0.113 -1.915,0.36 -2.982,0.824 -5.237,1.688 0.193,0.185 0.115,0.456 -0.312,0.792 -0.428,0.335 -1.127,0.672 -1.922,0.946 -0.047,0.95 -0.06,1.361 -0.091,2.708 0.257,-0.016 0.509,-0.02 0.751,-10e-4 1.356,0.104 1.992,0.73 1.668,1.535 2.567,0.253 3.871,0.614 6.452,1.164 0.962,-0.683 2.499,-0.945 3.857,-0.616 0.242,0.059 0.459,0.137 0.663,0.224 2.129,-0.95 3.109,-1.355 4.905,-2.043 -0.314,-0.383 -0.381,-0.787 -0.147,-1.12 0.235,-0.334 0.719,-0.535 1.302,-0.607 -0.503,-1.121 -0.737,-1.596 -1.19,-2.406 -0.191,-0.034 -0.383,-0.073 -0.575,-0.123 m -20.159,1.844 c -1.298,0.094 -1.815,-0.26 -1.408,-0.796 -2.325,0.209 -3.487,0.343 -5.773,0.659 -1.134,0.641 -2.801,1.271 -4.041,1.476 -0.221,0.037 -0.407,0.054 -0.575,0.06 -2.622,1.335 -3.966,2.064 -6.613,3.581 0.082,0.225 -0.143,0.606 -0.715,1.1 -0.571,0.495 -1.379,1.009 -2.214,1.438 -0.456,1.169 -0.682,1.791 -1.11,3.142 0.242,-0.069 0.48,-0.126 0.702,-0.158 1.247,-0.181 1.679,0.328 1.132,1.204 2.394,-0.257 3.659,-0.36 6.278,-0.5 1.268,-0.985 3.101,-1.746 4.558,-1.81 0.259,-0.011 0.483,0.007 0.688,0.039 2.874,-1.737 4.298,-2.576 7.025,-4.117 -0.205,-0.345 -0.07,-0.813 0.442,-1.327 0.511,-0.513 1.298,-0.974 2.153,-1.316 0.062,-1.243 0.105,-1.786 0.193,-2.765 -0.247,0.04 -0.49,0.073 -0.722,0.09 m -23.811,8.474 c -1.137,0.245 -1.408,-0.116 -0.846,-0.806 -1.998,0.489 -2.937,0.75 -4.664,1.285 -1.041,0.826 -2.364,1.626 -3.199,1.921 -0.149,0.052 -0.268,0.08 -0.371,0.096 -2.045,1.599 -2.994,2.406 -4.706,4.01 -0.036,0.221 -0.266,0.607 -0.681,1.108 -0.415,0.501 -0.929,1.02 -1.404,1.455 -0.56,1.122 -0.918,1.656 -1.296,2.994 0.116,-0.074 0.228,-0.136 0.332,-0.174 0.585,-0.214 0.749,0.277 0.395,1.15 1.197,-0.321 1.886,-0.47 3.454,-0.727 0.817,-1.036 2.05,-1.871 3.037,-2.006 0.176,-0.024 0.326,-0.017 0.464,0.005 2.141,-1.861 3.485,-2.668 6.075,-4.405 -0.074,-0.33 0.157,-0.811 0.719,-1.381 0.562,-0.57 1.348,-1.123 2.185,-1.57 0.448,-1.345 0.684,-1.966 1.158,-3.138 -0.229,0.074 -0.45,0.139 -0.652,0.183 m -22.337,20.264 c -0.038,0.34 -0.185,0.839 -0.443,1.407 -0.257,0.568 -0.571,1.092 -0.858,1.477 -0.364,1.508 -0.529,2.306 -0.815,4.011 0.078,-0.026 0.154,-0.039 0.225,-0.023 0.397,0.089 0.514,0.892 0.273,1.915 0.855,0.281 1.364,0.451 2.564,0.854 0.578,-1.029 1.461,-1.682 2.221,-1.474 0.135,0.038 0.254,0.107 0.364,0.193 1.515,-1.816 2.339,-2.758 4.138,-4.698 -0.127,-0.563 -0.032,-1.267 0.323,-2.014 0.355,-0.747 0.904,-1.398 1.526,-1.871 0.115,-2.09 0.196,-3.065 0.388,-4.896 -0.18,0.056 -0.354,0.097 -0.515,0.108 -0.906,0.062 -1.173,-0.627 -0.819,-1.603 -1.534,0.213 -2.206,0.341 -3.37,0.619 -0.684,0.966 -1.548,1.746 -2.071,1.882 -0.093,0.025 -0.166,0.022 -0.229,0.006 -1.285,1.694 -1.862,2.515 -2.902,4.107 m -5.649,14.828 c -0.027,0.479 -0.123,1.083 -0.291,1.683 -0.168,0.601 -0.376,1.078 -0.566,1.362 -0.226,1.889 -0.312,2.889 -0.416,5.012 0.058,0.029 0.116,0.074 0.172,0.152 0.313,0.44 0.473,1.594 0.376,2.773 0.713,0.962 1.146,1.492 2.184,2.641 0.356,-0.976 1.004,-1.332 1.658,-0.702 0.116,0.112 0.223,0.255 0.325,0.414 1.03,-1.527 1.594,-2.325 2.849,-4 -0.172,-0.763 -0.174,-1.615 0.034,-2.415 0.208,-0.8 0.588,-1.401 1.047,-1.75 -0.131,-2.643 -0.156,-3.894 -0.15,-6.259 -0.139,-0.005 -0.275,-0.028 -0.402,-0.086 -0.717,-0.329 -0.973,-1.397 -0.755,-2.557 -1.178,-0.462 -1.677,-0.66 -2.513,-0.994 -0.473,0.939 -1.078,1.479 -1.44,1.292 -0.064,-0.034 -0.115,-0.093 -0.157,-0.163 -0.878,1.491 -1.264,2.208 -1.955,3.597 m -3.1,15.778 c 0.085,0.638 0.145,1.366 0.141,2.017 -0.004,0.651 -0.076,1.094 -0.191,1.286 0.281,2.329 0.489,3.558 1.028,6.097 0.069,0.079 0.142,0.177 0.222,0.313 0.45,0.762 0.949,2.225 1.216,3.527 0.979,1.52 1.531,2.323 2.747,3.982 0.013,-0.889 0.452,-0.992 1.166,-0.073 0.127,0.164 0.255,0.355 0.382,0.559 0.39,-1.202 0.609,-1.83 1.13,-3.148 -0.354,-0.88 -0.601,-1.81 -0.665,-2.608 -0.063,-0.797 0.068,-1.314 0.337,-1.519 -0.867,-2.996 -1.378,-4.478 -1.822,-7.28 -0.12,-0.071 -0.239,-0.163 -0.358,-0.294 -0.67,-0.738 -1.078,-2.17 -1.038,-3.489 -1.035,-1.204 -1.468,-1.762 -2.178,-2.777 -0.29,0.896 -0.732,1.167 -1.042,0.627 -0.055,-0.096 -0.101,-0.216 -0.142,-0.346 -0.571,1.267 -0.64,1.907 -0.933,3.126 m 8.221,23.297 c 1.052,2.863 1.614,4.286 2.764,6.994 0.124,0.113 0.256,0.245 0.402,0.415 0.818,0.955 1.69,2.509 2.147,3.729 1.548,1.711 2.352,2.561 3.999,4.215 0.032,-0.671 0.656,-0.611 1.59,0.296 0.166,0.161 0.331,0.343 0.494,0.533 0.562,-0.807 0.879,-1.251 1.63,-2.243 -0.435,-0.812 -0.741,-1.67 -0.803,-2.392 -0.062,-0.722 0.136,-1.168 0.514,-1.301 -1.098,-2.932 -1.65,-4.49 -2.734,-7.669 -0.179,-0.106 -0.361,-0.237 -0.553,-0.412 -1.075,-0.985 -1.99,-2.746 -2.328,-4.317 -1.916,-1.789 -2.819,-2.682 -4.488,-4.417 -0.144,1.022 -0.802,1.135 -1.641,0.194 -0.15,-0.167 -0.295,-0.364 -0.437,-0.572 -0.54,1.31 -0.766,1.931 -1.169,3.12 0.364,0.866 0.653,1.778 0.773,2.525 0.119,0.746 0.047,1.183 -0.16,1.302 m 13.101,20.492 c 1.172,2.111 1.691,3.153 2.926,4.66 0.151,0.072 0.31,0.154 0.481,0.256 0.965,0.573 1.9,1.43 2.318,2.029 1.738,0.969 2.615,1.431 4.384,2.311 0.165,-0.276 0.946,-0.204 1.949,0.272 0.179,0.084 0.351,0.178 0.519,0.275 0.867,-0.33 1.352,-0.543 2.458,-1.079 -0.4,-0.429 -0.642,-0.895 -0.607,-1.301 0.035,-0.406 0.346,-0.673 0.833,-0.764 -0.933,-1.681 -1.424,-2.622 -2.444,-4.718 -0.213,-0.064 -0.429,-0.144 -0.652,-0.254 -1.252,-0.621 -2.261,-1.81 -2.559,-2.952 -2.331,-1.238 -3.562,-1.799 -5.69,-3.255 -0.269,0.825 -1.16,0.896 -2.265,0.103 -0.197,-0.141 -0.388,-0.306 -0.575,-0.483 -0.842,1.052 -1.096,1.375 -1.671,2.133 0.433,0.721 0.752,1.429 0.864,1.96 0.112,0.532 -0.003,0.79 -0.269,0.807 m 13.757,11.711 c 0.941,0.893 1.391,1.25 2.27,1.803 0.142,0.054 0.29,0.112 0.445,0.175 0.873,0.356 1.611,0.732 1.857,0.873 1.562,0.602 2.347,0.888 3.93,1.43 0.279,0.05 1.086,0.237 1.983,0.525 0.16,0.051 0.31,0.102 0.454,0.152 1.029,0.142 1.603,0.157 2.898,0.078 -0.283,-0.191 -0.396,-0.385 -0.246,-0.544 0.151,-0.16 0.542,-0.253 1.062,-0.267 -0.494,-0.79 -0.749,-1.256 -1.294,-2.358 -0.201,-0.038 -0.403,-0.084 -0.605,-0.146 -1.135,-0.349 -1.901,-0.989 -1.962,-1.611 -2.138,-0.713 -3.197,-1.098 -5.293,-1.926 -0.447,0.437 -1.445,0.434 -2.539,-0.027 -0.194,-0.083 -0.379,-0.177 -0.557,-0.278 -1.126,0.494 -1.621,0.687 -2.506,0.975 0.389,0.345 0.628,0.668 0.641,0.887 0.013,0.219 -0.198,0.294 -0.538,0.259 m 16.541,4.456 c 1.075,0.279 1.719,0.726 1.668,1.045 1.921,0.463 2.89,0.672 4.844,1.047 0.705,-0.19 1.972,-0.246 3.08,-0.065 0.197,0.033 0.371,0.072 0.533,0.114 1.915,-0.36 2.982,-0.825 5.237,-1.689 -0.193,-0.185 -0.115,-0.456 0.312,-0.791 0.428,-0.336 1.128,-0.673 1.923,-0.947 0.046,-0.95 0.059,-1.36 0.09,-2.707 -0.257,0.015 -0.509,0.019 -0.751,0.001 -1.356,-0.104 -1.993,-0.731 -1.669,-1.536 -2.566,-0.252 -3.87,-0.614 -6.451,-1.164 -0.962,0.683 -2.499,0.946 -3.858,0.616 -0.242,-0.058 -0.458,-0.136 -0.662,-0.224 -2.129,0.95 -3.11,1.355 -4.906,2.043 0.315,0.383 0.382,0.787 0.148,1.121 -0.235,0.334 -0.719,0.535 -1.302,0.607 0.503,1.12 0.737,1.596 1.19,2.406 0.191,0.034 0.383,0.073 0.574,0.123 m 19.439,-1.754 c 0.246,-0.041 0.49,-0.074 0.721,-0.091 1.298,-0.094 1.815,0.261 1.408,0.796 2.325,-0.208 3.487,-0.343 5.773,-0.659 1.134,-0.641 2.801,-1.27 4.041,-1.476 0.221,-0.037 0.407,-0.053 0.574,-0.06 2.622,-1.335 3.967,-2.064 6.614,-3.581 -0.082,-0.224 0.143,-0.605 0.715,-1.1 0.571,-0.495 1.379,-1.008 2.214,-1.438 0.455,-1.169 0.681,-1.791 1.11,-3.141 -0.243,0.068 -0.48,0.125 -0.702,0.158 -1.247,0.181 -1.679,-0.329 -1.132,-1.204 -2.394,0.256 -3.659,0.36 -6.278,0.499 -1.268,0.986 -3.101,1.747 -4.558,1.81 -0.259,0.012 -0.483,-0.006 -0.688,-0.039 -2.874,1.737 -4.298,2.577 -7.025,4.117 0.205,0.345 0.07,0.814 -0.442,1.327 -0.512,0.514 -1.298,0.974 -2.152,1.316 -0.063,1.243 -0.105,1.786 -0.193,2.766 m 23.879,-8.381 c 0.23,-0.075 0.45,-0.14 0.653,-0.183 1.137,-0.245 1.408,0.116 0.846,0.805 1.998,-0.489 2.937,-0.749 4.664,-1.285 1.041,-0.826 2.364,-1.626 3.199,-1.92 0.149,-0.052 0.268,-0.081 0.371,-0.097 2.045,-1.599 2.994,-2.406 4.706,-4.01 0.036,-0.221 0.266,-0.606 0.681,-1.108 0.415,-0.501 0.929,-1.02 1.404,-1.454 0.56,-1.122 0.919,-1.657 1.296,-2.995 -0.116,0.074 -0.228,0.137 -0.332,0.175 -0.585,0.214 -0.749,-0.278 -0.395,-1.15 -1.197,0.32 -1.886,0.469 -3.454,0.727 -0.817,1.035 -2.05,1.87 -3.037,2.005 -0.176,0.024 -0.327,0.018 -0.464,-0.004 -2.141,1.86 -3.486,2.667 -6.075,4.405 0.074,0.33 -0.157,0.81 -0.719,1.38 -0.562,0.57 -1.348,1.123 -2.185,1.57 -0.449,1.346 -0.684,1.967 -1.159,3.139 m 22.99,-20.448 c 0.038,-0.34 0.185,-0.838 0.443,-1.407 0.257,-0.568 0.571,-1.092 0.859,-1.476 0.363,-1.509 0.528,-2.306 0.815,-4.012 -0.078,0.026 -0.155,0.039 -0.226,0.023 -0.397,-0.089 -0.514,-0.892 -0.273,-1.915 -0.855,-0.281 -1.364,-0.45 -2.563,-0.854 -0.579,1.029 -1.462,1.683 -2.222,1.474 -0.136,-0.037 -0.254,-0.107 -0.364,-0.193 -1.515,1.816 -2.339,2.758 -4.138,4.699 0.127,0.562 0.032,1.267 -0.323,2.013 -0.355,0.747 -0.904,1.398 -1.526,1.872 -0.115,2.089 -0.196,3.064 -0.389,4.896 0.18,-0.057 0.354,-0.098 0.516,-0.109 0.905,-0.062 1.173,0.628 0.818,1.604 1.534,-0.213 2.207,-0.341 3.371,-0.62 0.683,-0.965 1.548,-1.746 2.07,-1.882 0.094,-0.024 0.167,-0.021 0.23,-0.006 1.285,-1.693 1.862,-2.515 2.902,-4.107 m -74,-75.245 c -0.125,1.911 -0.161,2.959 -0.157,5.274 0.305,-0.029 0.606,-0.038 0.896,-0.009 1.629,0.162 2.417,1.26 2.05,2.65 3.101,0.444 4.702,0.706 7.957,1.426 1.231,-1.294 3.24,-1.966 5.006,-1.539 0.314,0.076 0.594,0.19 0.857,0.323 2.883,-2.017 4.246,-2.844 6.848,-4.488 -0.383,-0.686 -0.417,-1.467 -0.028,-2.19 0.388,-0.723 1.118,-1.25 1.971,-1.538 -0.473,-2.271 -0.68,-3.309 -1.046,-5.202 -0.27,-0.022 -0.539,-0.058 -0.803,-0.121 -1.482,-0.354 -2.263,-1.269 -2.037,-2.16 -2.642,-0.56 -3.975,-0.907 -6.594,-1.158 -1.094,0.778 -2.87,1.318 -4.322,1.22 -0.258,-0.018 -0.483,-0.059 -0.688,-0.112 -2.721,1.457 -4.149,2.416 -7.031,4.183 0.201,0.415 0.062,1.007 -0.495,1.683 -0.556,0.676 -1.425,1.301 -2.384,1.758 m -5.15,83.843 c -0.468,-0.769 -0.688,-1.642 -0.521,-2.445 0.167,-0.804 0.695,-1.38 1.43,-1.66 -0.937,-2.932 -1.45,-4.441 -2.362,-7.84 -0.286,-0.066 -0.575,-0.159 -0.864,-0.303 -1.627,-0.808 -2.734,-2.613 -2.845,-4.396 -2.957,-1.541 -4.351,-2.37 -7.013,-4.023 -0.612,1.301 -1.921,1.635 -3.273,0.713 -0.241,-0.164 -0.466,-0.366 -0.681,-0.583 -1.491,1.77 -2.136,2.596 -3.269,4.14 0.44,0.967 0.704,2.005 0.696,2.88 -0.009,0.876 -0.282,1.419 -0.703,1.608 1.072,3.206 1.55,4.858 2.697,7.723 0.191,0.092 0.39,0.204 0.599,0.357 1.176,0.858 2.189,2.413 2.527,3.713 2.168,1.491 3.412,2.082 5.795,3.351 0.401,-0.828 1.587,-1.027 2.95,-0.346 0.242,0.121 0.471,0.268 0.692,0.424 1.497,-1.215 2.323,-1.877 4.145,-3.313 m 43.972,6.668 c 0.124,-1.911 0.161,-2.959 0.156,-5.274 -0.305,0.029 -0.606,0.039 -0.896,0.01 -1.629,-0.163 -2.417,-1.26 -2.05,-2.65 -3.101,-0.445 -4.702,-0.706 -7.957,-1.426 -1.232,1.294 -3.24,1.966 -5.006,1.539 -0.314,-0.076 -0.595,-0.191 -0.857,-0.324 -2.883,2.017 -4.246,2.844 -6.848,4.488 0.383,0.686 0.417,1.467 0.028,2.19 -0.389,0.723 -1.118,1.25 -1.971,1.539 0.473,2.27 0.68,3.309 1.046,5.202 0.269,0.022 0.539,0.057 0.803,0.12 1.482,0.354 2.262,1.269 2.037,2.161 2.642,0.559 3.975,0.906 6.594,1.158 1.094,-0.779 2.87,-1.319 4.322,-1.22 0.258,0.017 0.482,0.059 0.688,0.112 2.721,-1.457 4.149,-2.416 7.031,-4.183 -0.201,-0.415 -0.062,-1.007 0.494,-1.683 0.557,-0.676 1.426,-1.302 2.386,-1.759 M -44.168,-3.38 c 0.479,1.051 0.606,2.264 0.245,3.408 -0.361,1.145 -1.144,2.003 -2.128,2.481 0.723,3.85 1.079,5.797 1.74,9.615 0.342,0.042 0.684,0.114 1.02,0.243 1.89,0.724 2.986,2.615 2.853,4.543 3.39,1.256 4.951,1.839 7.989,2.976 1.03,-1.491 2.799,-2.158 4.36,-1.525 0.278,0.112 0.526,0.267 0.758,0.441 2.365,-2.254 3.349,-3.39 5.327,-5.511 -0.321,-0.931 -0.392,-2.023 -0.131,-3.042 0.261,-1.02 0.803,-1.764 1.459,-2.145 -0.555,-3.426 -0.755,-5.197 -1.654,-8.735 -0.245,-0.075 -0.496,-0.177 -0.753,-0.331 -1.44,-0.866 -2.497,-2.758 -2.639,-4.558 -2.712,-1.628 -4.133,-2.448 -7.134,-3.99 -0.777,1.368 -2.457,1.871 -4.178,1.053 -0.306,-0.145 -0.589,-0.333 -0.857,-0.538 -2.334,2.123 -3.608,3.265 -6.277,5.615 m -14.251,44.564 c -0.455,-3.131 -0.713,-4.811 -1.268,-8.336 -0.349,-0.028 -0.698,-0.083 -1.041,-0.194 -1.927,-0.62 -3.051,-2.415 -2.905,-4.333 -3.584,-1.238 -5.385,-1.893 -8.926,-3.249 -1.121,1.563 -3.136,2.216 -5.011,1.452 -0.334,-0.136 -0.637,-0.318 -0.922,-0.521 -2.691,2.344 -3.969,3.465 -6.329,5.572 0.483,1.002 0.644,2.126 0.375,3.145 -0.268,1.018 -0.909,1.735 -1.712,2.093 0.885,3.41 1.365,4.966 2.269,7.905 0.281,0.061 0.567,0.143 0.856,0.267 1.621,0.699 2.713,2.197 2.765,3.58 2.94,1.172 4.434,1.716 7.44,2.708 0.929,-1.026 2.728,-1.473 4.419,-0.965 0.301,0.09 0.573,0.211 0.827,0.345 2.582,-1.67 3.949,-2.553 6.82,-4.597 -0.386,-0.79 -0.415,-1.751 0.033,-2.704 0.449,-0.953 1.295,-1.711 2.31,-2.168 M -77.52,8.12 c 0.658,3.837 1.011,5.792 1.723,9.654 0.347,0.047 0.695,0.123 1.041,0.257 1.941,0.754 3.119,2.701 3.016,4.678 3.573,1.358 5.389,2.019 8.998,3.275 1.192,-1.58 3.347,-2.315 5.318,-1.644 0.35,0.119 0.666,0.285 0.962,0.471 3.028,-2.501 4.555,-3.772 7.525,-6.287 -0.455,-1.035 -0.53,-2.258 -0.104,-3.428 0.426,-1.17 1.269,-2.059 2.283,-2.559 -0.658,-3.836 -1.011,-5.791 -1.723,-9.654 -0.346,-0.047 -0.695,-0.123 -1.04,-0.257 -1.941,-0.753 -3.119,-2.701 -3.017,-4.678 -3.572,-1.358 -5.388,-2.019 -8.997,-3.275 -1.193,1.58 -3.347,2.315 -5.318,1.645 -0.351,-0.12 -0.667,-0.285 -0.962,-0.472 -3.029,2.501 -4.556,3.772 -7.526,6.287 0.456,1.035 0.531,2.258 0.105,3.428 -0.426,1.17 -1.269,2.059 -2.284,2.559 m 48.03,25.737 c -0.151,-2.896 -0.175,-4.399 -0.538,-7.645 -0.289,-0.016 -0.579,-0.057 -0.864,-0.15 -1.603,-0.518 -2.529,-2.166 -2.359,-3.971 -3.059,-1.082 -4.629,-1.638 -8.034,-2.855 -1.137,1.562 -3.192,2.306 -5.105,1.646 -0.341,-0.117 -0.649,-0.282 -0.938,-0.47 -2.96,2.501 -4.485,3.763 -7.513,6.247 0.446,0.999 0.494,2.16 0.035,3.269 -0.459,1.109 -1.335,1.956 -2.378,2.453 0.534,3.516 0.775,5.21 1.199,8.336 0.338,0.016 0.675,0.054 1.003,0.139 1.844,0.479 2.807,1.946 2.523,3.493 3.289,0.748 4.905,1.033 8.03,1.529 1.265,-1.288 3.292,-2.058 4.951,-1.795 0.296,0.046 0.554,0.13 0.79,0.23 2.963,-2.132 4.254,-3.361 6.882,-5.629 -0.258,-0.713 -0.195,-1.631 0.261,-2.58 0.455,-0.949 1.211,-1.739 2.055,-2.247 m -74.111,-21.304 c 0.555,3.426 0.755,5.198 1.654,8.735 0.245,0.076 0.496,0.177 0.753,0.331 1.44,0.866 2.497,2.759 2.639,4.558 2.713,1.629 4.133,2.449 7.134,3.991 0.776,-1.368 2.457,-1.872 4.178,-1.054 0.306,0.146 0.588,0.333 0.857,0.538 2.334,-2.122 3.608,-3.265 6.276,-5.615 -0.478,-1.051 -0.605,-2.263 -0.244,-3.408 0.361,-1.144 1.144,-2.003 2.128,-2.481 -0.723,-3.849 -1.08,-5.796 -1.74,-9.615 -0.342,-0.042 -0.684,-0.113 -1.02,-0.242 -1.89,-0.725 -2.986,-2.616 -2.853,-4.544 -3.39,-1.256 -4.951,-1.839 -7.989,-2.976 -1.03,1.492 -2.799,2.159 -4.36,1.526 -0.278,-0.113 -0.526,-0.268 -0.758,-0.442 -2.365,2.254 -3.349,3.39 -5.327,5.512 0.321,0.931 0.392,2.023 0.131,3.042 -0.261,1.019 -0.803,1.763 -1.459,2.144 m 8.814,-25.753 c 0.152,2.896 0.175,4.399 0.538,7.645 0.289,0.017 0.579,0.058 0.864,0.15 1.603,0.518 2.529,2.166 2.359,3.971 3.059,1.082 4.629,1.639 8.034,2.855 1.137,-1.562 3.192,-2.306 5.105,-1.646 0.341,0.117 0.648,0.282 0.938,0.47 2.96,-2.501 4.484,-3.763 7.513,-6.247 -0.446,-0.999 -0.494,-2.16 -0.035,-3.268 0.459,-1.109 1.335,-1.956 2.377,-2.454 -0.533,-3.516 -0.775,-5.21 -1.198,-8.336 -0.338,-0.015 -0.675,-0.054 -1.003,-0.139 -1.844,-0.479 -2.807,-1.945 -2.523,-3.493 -3.289,-0.747 -4.905,-1.032 -8.03,-1.528 -1.265,1.287 -3.292,2.057 -4.951,1.795 -0.296,-0.047 -0.554,-0.13 -0.79,-0.23 -2.963,2.132 -4.254,3.36 -6.882,5.628 0.258,0.714 0.194,1.632 -0.261,2.58 -0.455,0.949 -1.211,1.739 -2.055,2.247 m 56.668,-2.955 c -0.885,-3.411 -1.365,-4.967 -2.269,-7.905 -0.281,-0.061 -0.568,-0.143 -0.856,-0.267 -1.622,-0.699 -2.713,-2.197 -2.765,-3.58 -2.94,-1.172 -4.435,-1.716 -7.44,-2.708 -0.929,1.026 -2.728,1.472 -4.419,0.965 -0.301,-0.09 -0.573,-0.212 -0.828,-0.346 -2.581,1.67 -3.948,2.554 -6.819,4.597 0.385,0.791 0.415,1.752 -0.034,2.704 -0.448,0.953 -1.295,1.711 -2.309,2.168 0.454,3.131 0.712,4.811 1.267,8.336 0.35,0.028 0.698,0.084 1.041,0.194 1.928,0.621 3.052,2.415 2.906,4.333 3.584,1.238 5.385,1.893 8.926,3.249 1.121,-1.563 3.136,-2.215 5.011,-1.452 0.334,0.136 0.636,0.318 0.922,0.521 2.691,-2.344 3.969,-3.465 6.329,-5.571 -0.483,-1.003 -0.644,-2.127 -0.375,-3.145 0.268,-1.018 0.909,-1.735 1.712,-2.093 m 27.922,43.154 c -0.01,-2.408 -0.044,-3.683 -0.192,-6.372 -0.158,-0.027 -0.317,-0.073 -0.474,-0.162 -0.88,-0.499 -1.404,-1.915 -1.303,-3.412 -1.762,-1.066 -2.737,-1.637 -4.866,-2.834 -0.694,1.289 -1.992,1.866 -3.254,1.229 -0.224,-0.113 -0.429,-0.267 -0.622,-0.44 -1.951,2.101 -3.001,3.198 -5.253,5.457 0.308,0.896 0.321,1.935 -0.046,2.942 -0.366,1.007 -1.043,1.794 -1.856,2.283 0.273,3.178 0.372,4.693 0.516,7.557 0.26,-0.009 0.516,0.005 0.76,0.063 1.376,0.323 1.999,1.599 1.703,3.033 2.4,0.451 3.513,0.64 5.549,0.956 0.885,-1.211 2.196,-1.959 3.191,-1.775 0.177,0.032 0.329,0.098 0.467,0.18 1.842,-1.965 2.688,-2.92 4.243,-4.759 -0.119,-0.603 -0.056,-1.373 0.228,-2.151 0.283,-0.779 0.729,-1.409 1.209,-1.795 m -8.675,19.211 c 0.179,-1.859 0.253,-2.848 0.355,-4.971 -0.197,0.041 -0.392,0.064 -0.58,0.052 -1.054,-0.069 -1.546,-1.041 -1.238,-2.323 -2.065,-0.256 -3.194,-0.416 -5.622,-0.809 -1.015,1.296 -2.654,2.134 -4.081,1.921 -0.254,-0.038 -0.479,-0.116 -0.687,-0.213 -2.593,2.241 -3.917,3.423 -6.817,5.544 0.247,0.639 0.133,1.43 -0.407,2.248 -0.539,0.818 -1.402,1.51 -2.372,1.991 -0.022,2.3 -0.067,3.343 -0.224,5.243 0.288,-0.045 0.57,-0.075 0.836,-0.074 1.494,0.003 2.046,0.746 1.537,1.724 2.628,-0.108 3.895,-0.196 6.28,-0.425 1.236,-0.966 2.959,-1.756 4.176,-1.885 0.216,-0.024 0.397,-0.019 0.557,-10e-4 2.631,-1.755 3.93,-2.616 6.124,-4.495 -0.1,-0.396 0.066,-0.972 0.483,-1.675 0.418,-0.702 1.036,-1.361 1.68,-1.852 m -71.055,10.535 c 0.986,2.109 1.459,3.056 2.358,4.752 0.203,0.055 0.411,0.123 0.625,0.214 1.202,0.512 2.091,1.417 2.245,2.144 2.153,0.851 3.241,1.247 5.437,1.978 0.585,-0.457 1.848,-0.579 3.097,-0.198 0.223,0.067 0.426,0.149 0.617,0.237 1.778,-0.721 2.749,-1.143 4.861,-2.124 -0.319,-0.46 -0.375,-1.002 -0.057,-1.528 0.317,-0.525 0.954,-0.932 1.742,-1.161 -0.413,-1.877 -0.643,-2.909 -1.161,-5.168 -0.283,-0.031 -0.566,-0.079 -0.844,-0.163 -1.566,-0.469 -2.521,-1.663 -2.47,-2.926 -2.94,-0.97 -4.402,-1.502 -7.278,-2.649 -0.772,1.001 -2.271,1.302 -3.772,0.654 -0.267,-0.115 -0.515,-0.259 -0.751,-0.418 -1.849,1.398 -2.689,2.04 -4.212,3.213 0.457,0.682 0.683,1.403 0.589,2.01 -0.095,0.606 -0.486,0.985 -1.026,1.133 m -29.03,-42.648 c 0.473,2.848 0.914,4.344 1.802,7.379 0.134,0.089 0.276,0.202 0.427,0.359 0.848,0.881 1.661,2.593 1.986,4.128 1.681,1.709 2.594,2.59 4.539,4.362 0.238,-1.076 1.138,-1.29 2.285,-0.332 0.204,0.17 0.401,0.374 0.593,0.594 1.1,-1.556 1.737,-2.384 3.198,-4.161 -0.434,-0.991 -0.65,-2.076 -0.537,-3.05 0.112,-0.973 0.533,-1.652 1.133,-1.983 -0.858,-3.489 -1.113,-5.246 -1.658,-8.629 -0.222,-0.059 -0.444,-0.144 -0.663,-0.278 -1.231,-0.754 -1.948,-2.45 -1.892,-4.095 -2.113,-1.26 -3.08,-1.863 -4.827,-2.994 -0.588,1.18 -1.589,1.609 -2.442,0.984 -0.151,-0.111 -0.286,-0.255 -0.411,-0.413 -1.286,1.691 -1.865,2.497 -2.923,4.035 0.178,0.791 0.228,1.693 0.096,2.5 -0.131,0.806 -0.375,1.354 -0.706,1.594 m 4.877,-20.439 c 0.01,2.408 0.044,3.683 0.192,6.373 0.158,0.026 0.317,0.073 0.474,0.162 0.88,0.499 1.404,1.914 1.303,3.411 1.762,1.066 2.737,1.637 4.866,2.835 0.694,-1.289 1.992,-1.866 3.254,-1.23 0.224,0.114 0.429,0.267 0.622,0.441 1.951,-2.101 3.001,-3.198 5.253,-5.458 -0.308,-0.896 -0.321,-1.935 0.046,-2.941 0.366,-1.007 1.043,-1.795 1.856,-2.283 -0.273,-3.179 -0.372,-4.694 -0.516,-7.557 -0.26,0.008 -0.515,-0.005 -0.76,-0.063 -1.376,-0.324 -2,-1.6 -1.703,-3.034 -2.4,-0.451 -3.514,-0.64 -5.549,-0.956 -0.885,1.212 -2.197,1.959 -3.192,1.776 -0.177,-0.033 -0.329,-0.099 -0.466,-0.181 -1.843,1.966 -2.688,2.92 -4.243,4.759 0.119,0.603 0.056,1.373 -0.228,2.152 -0.283,0.778 -0.729,1.409 -1.209,1.794 m 8.674,-19.21 c -0.178,1.858 -0.252,2.848 -0.354,4.97 0.197,-0.041 0.392,-0.064 0.58,-0.052 1.054,0.069 1.546,1.041 1.238,2.323 2.065,0.257 3.193,0.416 5.622,0.809 1.015,-1.295 2.654,-2.134 4.081,-1.921 0.255,0.038 0.479,0.116 0.688,0.214 2.592,-2.241 3.916,-3.423 6.816,-5.545 -0.247,-0.639 -0.133,-1.429 0.407,-2.247 0.539,-0.818 1.402,-1.511 2.372,-1.991 0.022,-2.3 0.067,-3.344 0.224,-5.243 -0.288,0.045 -0.57,0.074 -0.836,0.074 -1.494,-0.004 -2.046,-0.746 -1.537,-1.724 -2.629,0.107 -3.895,0.196 -6.281,0.424 -1.235,0.967 -2.958,1.756 -4.175,1.886 -0.216,0.023 -0.397,0.018 -0.557,0.001 -2.631,1.754 -3.93,2.616 -6.124,4.494 0.1,0.397 -0.066,0.973 -0.484,1.675 -0.417,0.703 -1.035,1.361 -1.68,1.853 m 71.056,-10.536 c -0.987,-2.109 -1.459,-3.056 -2.358,-4.751 -0.203,-0.056 -0.411,-0.124 -0.625,-0.215 -1.202,-0.512 -2.092,-1.417 -2.245,-2.143 -2.153,-0.851 -3.241,-1.247 -5.437,-1.979 -0.585,0.458 -1.848,0.579 -3.097,0.199 -0.223,-0.068 -0.426,-0.15 -0.618,-0.238 -1.778,0.721 -2.749,1.143 -4.86,2.124 0.319,0.461 0.375,1.003 0.057,1.528 -0.317,0.526 -0.954,0.933 -1.742,1.161 0.413,1.878 0.643,2.909 1.161,5.169 0.283,0.03 0.565,0.079 0.844,0.162 1.566,0.469 2.521,1.663 2.469,2.926 2.941,0.971 4.402,1.503 7.278,2.649 0.773,-1 2.272,-1.301 3.773,-0.654 0.267,0.115 0.514,0.26 0.751,0.418 1.849,-1.398 2.688,-2.04 4.212,-3.213 -0.457,-0.682 -0.683,-1.402 -0.589,-2.009 0.095,-0.607 0.486,-0.986 1.026,-1.134 m 16.177,19.739 c -1.071,-3.206 -1.549,-4.859 -2.697,-7.724 -0.191,-0.091 -0.39,-0.204 -0.599,-0.356 -1.176,-0.858 -2.189,-2.414 -2.527,-3.713 -2.168,-1.491 -3.412,-2.082 -5.795,-3.351 -0.401,0.828 -1.587,1.027 -2.95,0.345 -0.242,-0.121 -0.472,-0.267 -0.692,-0.424 -1.498,1.215 -2.323,1.877 -4.145,3.313 0.467,0.769 0.688,1.642 0.521,2.446 -0.167,0.803 -0.695,1.38 -1.43,1.659 0.937,2.932 1.449,4.442 2.362,7.84 0.286,0.067 0.575,0.16 0.864,0.303 1.627,0.808 2.734,2.614 2.845,4.397 2.957,1.541 4.351,2.369 7.013,4.022 0.612,-1.3 1.921,-1.635 3.273,-0.712 0.241,0.164 0.466,0.365 0.681,0.583 1.491,-1.771 2.137,-2.597 3.27,-4.14 -0.441,-0.967 -0.705,-2.005 -0.697,-2.881 0.009,-0.875 0.283,-1.418 0.703,-1.607 M -5.32,6.561 C -5.793,3.712 -6.235,2.217 -7.122,-0.818 -7.257,-0.908 -7.398,-1.02 -7.549,-1.177 -8.397,-2.058 -9.21,-3.771 -9.535,-5.305 c -1.681,-1.709 -2.594,-2.591 -4.539,-4.363 -0.238,1.077 -1.138,1.29 -2.285,0.333 -0.204,-0.171 -0.401,-0.375 -0.592,-0.594 -1.101,1.556 -1.738,2.384 -3.199,4.16 0.434,0.992 0.65,2.077 0.537,3.05 -0.112,0.974 -0.533,1.653 -1.133,1.983 0.858,3.49 1.113,5.246 1.658,8.629 0.223,0.06 0.444,0.144 0.663,0.279 1.231,0.754 1.948,2.45 1.892,4.094 2.113,1.26 3.08,1.863 4.827,2.994 0.588,-1.18 1.589,-1.608 2.442,-0.983 0.151,0.111 0.286,0.255 0.411,0.412 1.285,-1.691 1.865,-2.497 2.923,-4.035 C -6.108,9.863 -6.158,8.962 -6.026,8.155 -5.895,7.348 -5.652,6.801 -5.32,6.561 m 3.42,18.93 c 0.027,-0.48 0.123,-1.083 0.291,-1.684 0.169,-0.6 0.376,-1.077 0.566,-1.362 0.226,-1.888 0.312,-2.888 0.416,-5.012 -0.058,-0.028 -0.116,-0.073 -0.172,-0.152 -0.313,-0.44 -0.473,-1.593 -0.376,-2.772 -0.713,-0.962 -1.146,-1.492 -2.184,-2.641 -0.356,0.975 -1.004,1.332 -1.658,0.702 -0.116,-0.112 -0.223,-0.256 -0.325,-0.415 -1.03,1.527 -1.594,2.326 -2.849,4.001 0.172,0.762 0.174,1.614 -0.034,2.414 -0.208,0.8 -0.588,1.401 -1.047,1.75 0.131,2.643 0.156,3.895 0.15,6.259 0.139,0.005 0.275,0.028 0.402,0.087 0.717,0.329 0.973,1.397 0.755,2.556 1.178,0.463 1.677,0.66 2.513,0.994 0.473,-0.939 1.078,-1.478 1.44,-1.291 0.064,0.033 0.115,0.092 0.158,0.163 0.877,-1.491 1.263,-2.209 1.954,-3.597 M 0.623,0.419 C 1.126,2.918 1.315,4.125 1.557,6.41 1.603,6.469 1.65,6.543 1.696,6.649 1.739,6.747 1.778,6.866 1.815,6.992 1.919,8.366 1.957,9.69 1.936,10.967 1.825,11.523 1.684,11.69 1.519,11.255 1.484,11.165 1.452,11.05 1.419,10.923 c -0.286,1.213 -0.431,1.839 -0.978,3.101 0.021,0.606 -0.033,1.274 -0.157,1.892 -0.124,0.62 -0.295,1.076 -0.482,1.329 -0.127,2.08 -0.225,3.059 -0.474,4.908 0.041,0.008 0.077,0.029 0.106,0.079 0.163,0.276 0.073,1.109 -0.142,2.009 0.143,0.316 0.162,0.447 0.087,0.653 -0.105,0.355 -0.211,0.708 -0.319,1.06 0.084,-0.177 0.063,-0.294 -0.094,-0.587 -0.274,0.794 -0.558,1.289 -0.738,1.102 -0.032,-0.033 -0.056,-0.092 -0.077,-0.163 -0.659,1.378 -1.029,2.089 -1.871,3.566 -0.019,0.452 -0.138,1.008 -0.35,1.592 -0.213,0.583 -0.479,1.086 -0.755,1.445 -0.304,1.672 -0.478,2.454 -0.859,3.933 0.061,-0.041 0.118,-0.07 0.164,-0.075 0.257,-0.027 0.157,0.535 -0.143,1.319 0.308,-0.124 0.399,-0.2 0.449,-0.39 -0.144,0.339 -0.289,0.678 -0.437,1.018 -0.075,0.206 -0.174,0.294 -0.487,0.444 -0.414,0.828 -0.88,1.524 -1.182,1.631 -0.054,0.019 -0.096,0.012 -0.132,-0.008 -0.998,1.576 -1.552,2.389 -2.791,4.064 -0.021,0.314 -0.183,0.774 -0.485,1.328 -0.303,0.554 -0.691,1.1 -1.097,1.551 -0.392,1.318 -0.683,1.891 -1.244,3.004 0.107,-0.077 0.206,-0.144 0.29,-0.191 0.406,-0.227 0.407,-0.008 0.135,0.489 -0.805,0.991 -1.685,1.981 -2.649,2.967 -0.109,0.073 -0.215,0.139 -0.311,0.186 -0.104,0.052 -0.187,0.079 -0.259,0.094 -1.655,1.596 -2.576,2.399 -4.567,3.989 -0.004,0.116 -0.086,0.285 -0.232,0.49 -1.299,1.009 -2.688,2.004 -4.158,2.975 -0.001,0 -0.002,0.001 -0.003,0.001 -0.92,0.306 -1.157,0.025 -0.614,-0.634 -1.766,0.541 -2.72,0.804 -4.742,1.299 -1.147,0.816 -2.714,1.57 -3.881,1.825 -0.208,0.045 -0.382,0.067 -0.54,0.077 -2.618,1.507 -3.951,2.231 -6.556,3.558 0.102,0.193 -0.105,0.511 -0.643,0.906 -0.539,0.396 -1.304,0.791 -2.112,1.112 -0.245,0.63 -0.366,0.927 -0.602,1.495 -0.59,0.203 -1.178,0.397 -1.762,0.582 0.222,-0.571 0.336,-0.869 0.567,-1.51 -0.233,0.054 -0.461,0.1 -0.675,0.13 -1.201,0.173 -1.651,-0.082 -1.193,-0.602 -2.26,0.299 -3.405,0.424 -5.691,0.615 -1.053,0.555 -2.567,0.968 -3.781,1.028 -0.216,0.011 -0.404,0.007 -0.577,-0.004 -2.26,0.852 -3.316,1.193 -5.255,1.69 0.205,0.135 0.164,0.308 -0.157,0.47 -0.321,0.163 -0.855,0.271 -1.452,0.32 0.14,0.314 0.211,0.445 0.358,0.671 -0.449,-0.021 -0.891,-0.048 -1.328,-0.081 -0.171,-0.19 -0.264,-0.251 -0.418,-0.578 -0.187,-0.023 -0.372,-0.05 -0.553,-0.083 -1.014,-0.184 -1.582,-0.46 -1.461,-0.72 -1.906,-0.374 -2.851,-0.582 -4.722,-1.039 -0.578,0.145 -1.591,0.051 -2.569,-0.214 -0.174,-0.047 -0.334,-0.097 -0.486,-0.149 -1.304,0.049 -1.883,0.018 -2.921,-0.156 0.289,0.123 0.424,0.201 0.353,0.195 -0.03,-0.003 -0.101,-0.023 -0.192,-0.052 -1.138,-0.349 -2.263,-0.717 -3.386,-1.102 -0.057,-0.017 -0.106,-0.032 -0.138,-0.042 -1.545,-0.531 -2.312,-0.81 -3.837,-1.397 -0.031,-0.012 -0.079,-0.032 -0.133,-0.056 -1.108,-0.427 -2.206,-0.869 -3.302,-1.332 -0.089,-0.036 -0.155,-0.067 -0.18,-0.084 -0.058,-0.041 0.095,-0.014 0.395,0.077 -0.906,-0.533 -1.37,-0.881 -2.337,-1.758 -0.15,-0.058 -0.305,-0.122 -0.468,-0.197 -0.92,-0.427 -1.757,-1.006 -2.106,-1.488 -1.727,-0.853 -2.585,-1.301 -4.285,-2.239 -0.075,0.277 -0.687,0.123 -1.583,-0.388 -0.159,-0.091 -0.318,-0.19 -0.476,-0.292 -0.329,0.152 -0.439,0.139 -0.691,0.174 -0.356,-0.255 -0.713,-0.519 -1.07,-0.791 0.258,-0.079 0.396,-0.134 0.705,-0.285 -0.426,-0.421 -0.765,-0.847 -0.906,-1.177 -0.142,-0.331 -0.063,-0.49 0.182,-0.462 -1.166,-1.627 -1.756,-2.566 -2.939,-4.672 -0.14,-0.103 -0.286,-0.22 -0.445,-0.368 -0.892,-0.827 -1.786,-2.116 -2.236,-3.218 -1.629,-1.616 -2.425,-2.447 -3.964,-4.129 0.016,0.692 -0.492,0.599 -1.302,-0.306 -0.144,-0.161 -0.289,-0.342 -0.433,-0.533 -0.234,0.639 -0.339,0.941 -0.536,1.521 -0.328,-0.518 -0.654,-1.044 -0.976,-1.578 0.185,-0.588 0.283,-0.893 0.5,-1.533 -0.412,-0.765 -0.744,-1.56 -0.903,-2.209 -0.158,-0.649 -0.112,-1.026 0.09,-1.107 -1.142,-2.691 -1.698,-4.103 -2.736,-6.94 -0.114,-0.109 -0.233,-0.238 -0.363,-0.406 -0.73,-0.946 -1.446,-2.531 -1.8,-3.893 -1.231,-1.678 -1.793,-2.493 -2.798,-4.043 -0.008,0.854 -0.367,0.918 -0.878,0.091 0,-10e-4 -10e-4,-0.002 -10e-4,-0.003 -0.502,-1.688 -0.927,-3.344 -1.274,-4.952 0.021,-0.251 0.067,-0.433 0.138,-0.524 -0.503,-2.498 -0.692,-3.705 -0.934,-5.991 -0.046,-0.058 -0.093,-0.132 -0.139,-0.239 -0.043,-0.098 -0.082,-0.216 -0.119,-0.342 -0.104,-1.375 -0.142,-2.699 -0.121,-3.976 0.111,-0.555 0.252,-0.722 0.417,-0.287 0.034,0.089 0.067,0.204 0.1,0.332 0.286,-1.213 0.431,-1.839 0.978,-3.101 -0.021,-0.606 0.033,-1.274 0.157,-1.893 0.124,-0.619 0.295,-1.075 0.482,-1.329 0.127,-2.08 0.225,-3.059 0.474,-4.907 -0.041,-0.008 -0.077,-0.03 -0.106,-0.079 -0.163,-0.276 -0.072,-1.109 0.143,-2.01 -0.144,-0.316 -0.163,-0.446 -0.087,-0.652 0.104,-0.355 0.21,-0.709 0.318,-1.061 -0.083,0.177 -0.062,0.295 0.094,0.587 0.274,-0.793 0.559,-1.288 0.738,-1.101 0.032,0.033 0.057,0.091 0.078,0.162 0.658,-1.378 1.028,-2.089 1.87,-3.565 0.019,-0.452 0.138,-1.009 0.351,-1.592 0.212,-0.584 0.479,-1.087 0.754,-1.446 0.304,-1.672 0.478,-2.454 0.859,-3.933 -0.061,0.041 -0.118,0.07 -0.164,0.075 -0.257,0.028 -0.157,-0.534 0.143,-1.318 -0.308,0.123 -0.399,0.199 -0.449,0.389 0.144,-0.339 0.29,-0.678 0.438,-1.017 0.074,-0.207 0.173,-0.294 0.486,-0.444 0.414,-0.828 0.88,-1.524 1.182,-1.631 0.054,-0.019 0.096,-0.013 0.132,0.007 0.998,-1.576 1.552,-2.389 2.791,-4.063 0.02,-0.315 0.182,-0.774 0.485,-1.328 0.303,-0.554 0.691,-1.1 1.097,-1.552 0.392,-1.318 0.683,-1.89 1.244,-3.004 -0.107,0.077 -0.206,0.144 -0.29,0.191 -0.406,0.227 -0.407,0.008 -0.135,-0.489 0.805,-0.991 1.685,-1.981 2.649,-2.967 0.109,-0.073 0.215,-0.138 0.311,-0.186 0.104,-0.052 0.187,-0.079 0.259,-0.094 1.655,-1.595 2.576,-2.398 4.567,-3.989 0.004,-0.115 0.086,-0.284 0.231,-0.49 1.3,-1.008 2.689,-2.004 4.159,-2.975 10e-4,0 0.002,0 0.003,-10e-4 0.92,-0.302 1.157,-0.025 0.614,0.634 1.766,-0.541 2.72,-0.804 4.742,-1.298 1.147,-0.816 2.714,-1.57 3.881,-1.825 0.207,-0.046 0.382,-0.068 0.54,-0.078 2.618,-1.506 3.951,-2.231 6.556,-3.558 -0.102,-0.192 0.105,-0.51 0.643,-0.906 0.539,-0.395 1.304,-0.79 2.112,-1.112 0.245,-0.63 0.366,-0.926 0.602,-1.495 0.59,-0.202 1.177,-0.396 1.762,-0.581 -0.222,0.57 -0.336,0.869 -0.567,1.509 0.233,-0.053 0.461,-0.099 0.675,-0.13 1.201,-0.173 1.65,0.083 1.193,0.602 2.26,-0.299 3.405,-0.424 5.691,-0.615 1.053,-0.554 2.567,-0.968 3.781,-1.028 0.216,-0.01 0.404,-0.007 0.578,0.004 2.259,-0.852 3.315,-1.193 5.254,-1.689 -0.206,-0.136 -0.164,-0.309 0.157,-0.471 0.321,-0.162 0.855,-0.271 1.452,-0.319 -0.14,-0.315 -0.211,-0.445 -0.357,-0.672 0.448,0.022 0.89,0.049 1.328,0.082 0.17,0.189 0.263,0.25 0.417,0.578 0.187,0.023 0.372,0.049 0.552,0.082 1.015,0.184 1.583,0.46 1.462,0.72 1.906,0.374 2.851,0.583 4.722,1.04 0.578,-0.145 1.591,-0.051 2.569,0.213 0.174,0.047 0.334,0.098 0.486,0.15 1.304,-0.05 1.883,-0.018 2.921,0.156 -0.289,-0.124 -0.424,-0.202 -0.353,-0.195 0.03,0.002 0.101,0.022 0.192,0.051 1.138,0.35 2.263,0.717 3.386,1.103 0.057,0.016 0.106,0.031 0.138,0.042 1.545,0.53 2.312,0.809 3.837,1.396 0.031,0.012 0.079,0.033 0.133,0.057 1.108,0.426 2.206,0.868 3.302,1.332 0.089,0.036 0.155,0.066 0.18,0.084 0.058,0.04 -0.095,0.013 -0.395,-0.077 0.906,0.533 1.37,0.881 2.337,1.757 0.15,0.058 0.305,0.122 0.468,0.198 0.92,0.426 1.756,1.005 2.106,1.488 1.727,0.852 2.585,1.3 4.285,2.238 0.075,-0.276 0.687,-0.122 1.583,0.388 0.159,0.091 0.318,0.19 0.476,0.293 0.329,-0.152 0.439,-0.139 0.691,-0.175 0.357,0.256 0.713,0.52 1.07,0.792 -0.258,0.079 -0.396,0.133 -0.705,0.284 0.426,0.421 0.765,0.847 0.906,1.178 0.142,0.33 0.063,0.489 -0.182,0.461 1.167,1.627 1.756,2.567 2.94,4.672 0.139,0.103 0.286,0.221 0.444,0.368 0.892,0.827 1.786,2.116 2.236,3.218 1.629,1.616 2.425,2.448 3.964,4.13 -0.016,-0.692 0.493,-0.599 1.302,0.305 0.144,0.161 0.289,0.343 0.433,0.533 0.234,-0.639 0.339,-0.94 0.536,-1.52 0.328,0.517 0.654,1.043 0.976,1.578 -0.185,0.587 -0.283,0.892 -0.5,1.532 0.412,0.766 0.745,1.56 0.903,2.209 0.158,0.649 0.112,1.026 -0.09,1.108 1.143,2.691 1.698,4.103 2.736,6.94 0.114,0.109 0.233,0.238 0.363,0.406 0.73,0.945 1.446,2.53 1.8,3.893 1.231,1.678 1.793,2.493 2.798,4.042 0.008,-0.853 0.367,-0.917 0.878,-0.09 0,0.001 0.001,0.001 0.001,0.002 0.502,1.689 0.927,3.344 1.274,4.952 C 0.74,0.146 0.694,0.328 0.623,0.419"
       style="fill:#ffffff;fill-opacity:1;fill-rule:nonzero;stroke:none"
       transform="matrix(0.35277776,0,0,-0.35277776,-3318.9258,-2542.782)"
       clip-path="url(#clipPath7)" />
    <path
       id="path8"
       d="m -3417.5691,-2504.3307 h -7.6796 v 5.1996 h 9.0127 v 3.2134 h -13.0122 v -19.4123 h 12.9858 v 3.24 h -8.9863 v 4.6263 h 7.6796 z"
       style="fill:#00a6d6;fill-opacity:1;fill-rule:nonzero;stroke:none;stroke-width:0.352778" />
    <path
       id="path9"
       d="m -3410.076,-2495.9178 h -3.8665 v -20.4787 h 3.8665 z"
       style="fill:#00a6d6;fill-opacity:1;fill-rule:nonzero;stroke:none;stroke-width:0.352778" />
    <path
       id="path10"
       d="M 0,0 C -2.167,0 -3.924,-0.734 -5.272,-2.202 -6.62,-3.671 -7.483,-5.77 -7.861,-8.504 H 7.332 v 0.873 C 7.281,-5.201 6.626,-3.322 5.367,-1.993 4.106,-0.665 2.318,0 0,0 m 1.248,-33.599 c -5.998,0 -10.879,1.839 -14.645,5.518 -3.768,3.679 -5.65,8.579 -5.65,14.702 v 1.058 c 0,4.106 0.793,7.779 2.38,11.016 1.588,3.238 3.836,5.732 6.747,7.484 2.91,1.751 6.229,2.627 9.958,2.627 5.593,0 9.996,-1.765 13.209,-5.291 3.212,-3.529 4.818,-8.53 4.818,-15.004 v -4.46 H -7.974 c 0.352,-2.671 1.417,-4.813 3.193,-6.425 1.777,-1.612 4.025,-2.419 6.746,-2.419 4.208,0 7.496,1.524 9.865,4.573 l 5.366,-6.009 c -1.638,-2.318 -3.855,-4.125 -6.652,-5.423 -2.796,-1.297 -5.895,-1.947 -9.296,-1.947"
       style="fill:#00a6d6;fill-opacity:1;fill-rule:nonzero;stroke:none"
       transform="matrix(0.35277776,0,0,-0.35277776,-3400.7034,-2507.504)"
       clip-path="url(#clipPath11)" />
    <path
       id="path12"
       d="m 0,0 0.34,-4.573 c 2.897,3.552 6.815,5.329 11.754,5.329 5.265,0 8.881,-2.079 10.846,-6.236 2.872,4.157 6.967,6.236 12.283,6.236 4.434,0 7.735,-1.292 9.902,-3.874 2.167,-2.583 3.25,-6.469 3.25,-11.659 v -26.116 h -10.96 v 26.078 c 0,2.318 -0.454,4.011 -1.361,5.083 -0.907,1.071 -2.507,1.606 -4.799,1.606 -3.276,0 -5.544,-1.562 -6.803,-4.686 L 24.49,-40.893 H 13.567 v 26.04 c 0,2.368 -0.466,4.082 -1.398,5.14 -0.932,1.058 -2.52,1.587 -4.762,1.587 -3.099,0 -5.342,-1.285 -6.727,-3.854 V -40.893 H -10.242 V 0 Z"
       style="fill:#00a6d6;fill-opacity:1;fill-rule:nonzero;stroke:none"
       transform="matrix(0.35277776,0,0,-0.35277776,-3388.5307,-2510.3438)"
       clip-path="url(#clipPath13)" />
    <path
       id="path14"
       d="M 0,0 C -2.167,0 -3.924,-0.734 -5.271,-2.202 -6.62,-3.671 -7.482,-5.77 -7.86,-8.504 H 7.332 v 0.873 C 7.281,-5.201 6.627,-3.322 5.367,-1.993 4.106,-0.665 2.318,0 0,0 m 1.248,-33.599 c -5.997,0 -10.879,1.839 -14.645,5.518 -3.767,3.679 -5.65,8.579 -5.65,14.702 v 1.058 c 0,4.106 0.793,7.779 2.381,11.016 1.587,3.238 3.836,5.732 6.746,7.484 2.91,1.751 6.23,2.627 9.958,2.627 5.594,0 9.996,-1.765 13.209,-5.291 3.212,-3.529 4.818,-8.53 4.818,-15.004 v -4.46 H -7.974 c 0.353,-2.671 1.417,-4.813 3.194,-6.425 1.776,-1.612 4.024,-2.419 6.746,-2.419 4.207,0 7.495,1.524 9.864,4.573 l 5.366,-6.009 c -1.637,-2.318 -3.854,-4.125 -6.651,-5.423 -2.797,-1.297 -5.896,-1.947 -9.297,-1.947"
       style="fill:#00a6d6;fill-opacity:1;fill-rule:nonzero;stroke:none"
       transform="matrix(0.35277776,0,0,-0.35277776,-3362.3058,-2507.504)"
       clip-path="url(#clipPath15)" />
    <path
       id="path16"
       d="m 0,0 0.34,-4.725 c 2.923,3.654 6.841,5.481 11.754,5.481 4.333,0 7.558,-1.273 9.675,-3.818 2.117,-2.544 3.2,-6.349 3.251,-11.413 V -40.893 H 14.097 v 26.154 c 0,2.317 -0.504,3.999 -1.512,5.045 -1.008,1.045 -2.683,1.568 -5.026,1.568 -3.075,0 -5.38,-1.311 -6.916,-3.931 V -40.893 H -10.279 V 0 Z"
       style="fill:#00a6d6;fill-opacity:1;fill-rule:nonzero;stroke:none"
       transform="matrix(0.35277776,0,0,-0.35277776,-3350.1997,-2510.3438)"
       clip-path="url(#clipPath17)" />
    <path
       id="path18"
       d="m 0,0 v -10.053 h 6.992 v -8.012 H 0 v -20.409 c 0,-1.511 0.289,-2.594 0.869,-3.25 0.579,-0.655 1.688,-0.982 3.326,-0.982 1.209,0 2.281,0.088 3.212,0.265 v -8.278 c -2.141,-0.654 -4.345,-0.982 -6.613,-0.982 -7.66,0 -11.565,3.867 -11.716,11.602 v 22.034 h -5.972 v 8.012 h 5.972 V 0 Z"
       style="fill:#00a6d6;fill-opacity:1;fill-rule:nonzero;stroke:none"
       transform="matrix(0.35277776,0,0,-0.35277776,-3333.8407,-2513.8902)"
       clip-path="url(#clipPath19)" />
    <path
       id="path20"
       d="m 0,0 c 1.611,0 3.099,0.359 4.459,1.077 1.36,0.718 2.368,1.682 3.023,2.891 v 7.03 H 3.401 c -5.467,0 -8.378,-1.89 -8.73,-5.669 L -5.367,4.687 c 0,-1.361 0.478,-2.483 1.436,-3.365 C -2.974,0.44 -1.663,0 0,0 M 9.032,-7.597 C 8.527,-6.614 8.163,-5.392 7.937,-3.931 5.291,-6.878 1.852,-8.353 -2.382,-8.353 c -4.006,0 -7.325,1.16 -9.958,3.478 -2.633,2.317 -3.949,5.24 -3.949,8.768 0,4.333 1.606,7.659 4.818,9.977 3.213,2.317 7.855,3.489 13.927,3.515 h 5.026 v 2.343 c 0,1.889 -0.485,3.401 -1.455,4.535 -0.969,1.133 -2.501,1.701 -4.591,1.701 -1.839,0 -3.283,-0.442 -4.328,-1.323 C -3.938,23.759 -4.46,22.55 -4.46,21.013 h -10.922 c 0,2.368 0.731,4.56 2.192,6.576 1.461,2.015 3.527,3.596 6.198,4.743 2.67,1.146 5.669,1.72 8.995,1.72 5.038,0 9.038,-1.267 11.999,-3.799 2.96,-2.532 4.44,-6.091 4.44,-10.676 V 1.852 c 0.026,-3.88 0.568,-6.816 1.625,-8.806 v -0.643 z"
       style="fill:#00a6d6;fill-opacity:1;fill-rule:nonzero;stroke:none"
       transform="matrix(0.35277776,0,0,-0.35277776,-3324.0545,-2498.5977)"
       clip-path="url(#clipPath21)" />
    <path
       id="path22"
       d="m 369.82,99.9 h -10.96 v 58.05 h 10.96 z"
       style="fill:#00a6d6;fill-opacity:1;fill-rule:nonzero;stroke:none"
       transform="matrix(0.35277776,0,0,-0.35277776,-3440.9864,-2460.6753)"
       clip-path="url(#clipPath23)" />
    <path
       id="path24"
       d="m 0,0 -0.952,21.771 12.441,-34.404 h 6.538 L 30.5,21.804 29.548,0 v -12.633 h 9.554 V 33.578 H 26.597 L 14.79,0.062 2.92,33.578 H -9.521 V -12.633 H 0 Z"
       style="fill:#00a6d6;fill-opacity:1;fill-rule:nonzero;stroke:none"
       transform="matrix(0.35277776,0,0,-0.35277776,-3425.9057,-2481.3244)"
       clip-path="url(#clipPath25)" />
    <path
       id="path26"
       d="m 90.038,45.9 h 9.204 v 34.342 h -9.204 z"
       style="fill:#00a6d6;fill-opacity:1;fill-rule:nonzero;stroke:none"
       transform="matrix(0.35277776,0,0,-0.35277776,-3440.9864,-2460.6753)"
       clip-path="url(#clipPath27)" />
    <path
       id="path28"
       d="m 0,0 c 2.624,0 5.02,0.535 7.188,1.604 2.169,1.068 3.878,2.57 5.126,4.505 1.249,1.938 1.883,4.069 1.905,6.397 H 5.618 C 5.575,10.961 5.025,9.723 3.967,8.792 2.909,7.861 1.534,7.396 -0.159,7.396 c -2.2,0 -3.84,0.772 -4.919,2.32 -1.079,1.547 -1.619,4.09 -1.619,7.629 v 0.954 c 0,3.496 0.545,6.023 1.635,7.58 1.089,1.558 2.703,2.337 4.84,2.337 1.735,0 3.131,-0.559 4.189,-1.675 1.058,-1.117 1.608,-2.569 1.651,-4.355 h 8.601 c -0.043,4.062 -1.36,7.316 -3.951,9.759 -2.593,2.444 -6.037,3.666 -10.331,3.666 -4.91,0 -8.771,-1.577 -11.585,-4.729 -2.814,-3.153 -4.221,-7.374 -4.221,-12.663 v -0.604 c 0,-5.502 1.417,-9.812 4.253,-12.933 C -8.781,1.561 -4.909,0 0,0"
       style="fill:#00a6d6;fill-opacity:1;fill-rule:nonzero;stroke:none"
       transform="matrix(0.35277776,0,0,-0.35277776,-3398.2166,-2476.6439)"
       clip-path="url(#clipPath29)" />
    <path
       id="path30"
       d="m 0,0 c 1.079,2.35 3.354,3.523 6.824,3.523 0.952,0 2.052,-0.085 3.301,-0.253 l 0.126,8.823 c -0.888,0.274 -1.84,0.413 -2.856,0.413 -3.259,0 -5.808,-1.577 -7.649,-4.73 l -0.254,4.095 H -9.172 V -22.471 H 0 Z"
       style="fill:#00a6d6;fill-opacity:1;fill-rule:nonzero;stroke:none"
       transform="matrix(0.35277776,0,0,-0.35277776,-3388.1173,-2484.795)"
       clip-path="url(#clipPath31)" />
    <path
       id="path32"
       d="m 0,0 c 1.227,1.748 2.962,2.622 5.205,2.622 2.264,0 4.02,-0.88 5.269,-2.638 1.248,-1.759 1.872,-4.239 1.872,-7.438 0,-3.751 -0.624,-6.48 -1.872,-8.185 -1.249,-1.707 -2.984,-2.559 -5.205,-2.559 -2.286,0 -4.042,0.863 -5.269,2.591 -1.228,1.726 -1.841,4.222 -1.841,7.485 0,3.666 0.613,6.373 1.841,8.122 m 5.269,-25.594 c 4.951,0 8.897,1.592 11.838,4.778 2.941,3.183 4.412,7.41 4.412,12.679 l -0.064,2.348 C 21.116,-0.922 19.482,2.929 16.551,5.764 13.621,8.6 9.839,10.018 5.205,10.018 1.946,10.018 -0.916,9.287 -3.38,7.827 -5.845,6.367 -7.734,4.305 -9.045,1.639 c -1.312,-2.666 -1.968,-5.703 -1.968,-9.11 v -0.412 c 0,-5.459 1.475,-9.775 4.428,-12.949 2.951,-3.174 6.902,-4.762 11.854,-4.762"
       style="fill:#00a6d6;fill-opacity:1;fill-rule:nonzero;stroke:none"
       transform="matrix(0.35277776,0,0,-0.35277776,-3380.011,-2485.6728)"
       clip-path="url(#clipPath33)" />
    <path
       id="path34"
       d="m 0,0 c -0.899,-0.666 -2.228,-0.999 -3.983,-0.999 -1.883,0 -3.386,0.434 -4.507,1.302 -1.121,0.867 -1.725,2.115 -1.809,3.744 h -8.696 c 0,-2.073 0.635,-4.004 1.904,-5.791 1.27,-1.789 3.02,-3.195 5.253,-4.223 2.232,-1.025 4.786,-1.539 7.664,-1.539 4.253,0 7.723,0.969 10.41,2.904 2.688,1.936 4.032,4.47 4.032,7.602 0,4.38 -2.423,7.459 -7.269,9.236 -1.565,0.571 -3.491,1.084 -5.776,1.539 -2.285,0.455 -3.91,0.995 -4.871,1.62 -0.964,0.623 -1.445,1.443 -1.445,2.459 0,1.079 0.423,1.967 1.27,2.666 0.845,0.698 2.041,1.046 3.586,1.046 1.799,0 3.121,-0.427 3.967,-1.285 C 0.576,19.424 1,18.34 1,17.028 h 9.172 c 0,3.28 -1.307,5.946 -3.919,7.998 -2.614,2.052 -6.1,3.079 -10.458,3.079 -4.084,0 -7.391,-1.021 -9.918,-3.062 -2.529,-2.043 -3.793,-4.587 -3.793,-7.634 0,-5.226 4.083,-8.696 12.251,-10.41 C -3.211,6.491 -1.428,5.914 -0.317,5.27 0.794,4.623 1.349,3.74 1.349,2.619 1.349,1.54 0.899,0.668 0,0"
       style="fill:#00a6d6;fill-opacity:1;fill-rule:nonzero;stroke:none"
       transform="matrix(0.35277776,0,0,-0.35277776,-3364.3415,-2479.2918)"
       clip-path="url(#clipPath35)" />
    <path
       id="path36"
       d="m 0,0 c 2.624,0 5.02,0.535 7.188,1.604 2.169,1.068 3.878,2.57 5.126,4.505 1.249,1.938 1.883,4.069 1.905,6.397 H 5.618 C 5.575,10.961 5.025,9.723 3.968,8.792 2.909,7.861 1.534,7.396 -0.158,7.396 c -2.201,0 -3.841,0.772 -4.92,2.32 -1.079,1.547 -1.618,4.09 -1.618,7.629 v 0.954 c 0,3.496 0.544,6.023 1.634,7.58 1.089,1.558 2.703,2.337 4.84,2.337 1.735,0 3.131,-0.559 4.19,-1.675 1.057,-1.117 1.607,-2.569 1.65,-4.355 h 8.601 c -0.042,4.062 -1.36,7.316 -3.951,9.759 -2.592,2.444 -6.037,3.666 -10.331,3.666 -4.91,0 -8.771,-1.577 -11.584,-4.729 -2.815,-3.153 -4.222,-7.374 -4.222,-12.663 v -0.604 c 0,-5.502 1.418,-9.812 4.253,-12.933 C -8.781,1.561 -4.909,0 0,0"
       style="fill:#00a6d6;fill-opacity:1;fill-rule:nonzero;stroke:none"
       transform="matrix(0.35277776,0,0,-0.35277776,-3353.5425,-2476.6439)"
       clip-path="url(#clipPath37)" />
    <path
       id="path38"
       d="m 0,0 c 1.227,1.748 2.962,2.622 5.205,2.622 2.264,0 4.02,-0.88 5.269,-2.638 1.248,-1.759 1.872,-4.239 1.872,-7.438 0,-3.751 -0.624,-6.48 -1.872,-8.185 -1.249,-1.707 -2.984,-2.559 -5.205,-2.559 -2.286,0 -4.042,0.863 -5.269,2.591 -1.228,1.726 -1.841,4.222 -1.841,7.485 0,3.666 0.613,6.373 1.841,8.122 m 5.269,-25.594 c 4.951,0 8.896,1.592 11.837,4.778 2.942,3.183 4.413,7.41 4.413,12.679 l -0.064,2.348 C 21.116,-0.922 19.481,2.929 16.551,5.764 13.62,8.6 9.839,10.018 5.205,10.018 c -3.259,0 -6.121,-0.731 -8.586,-2.191 -2.465,-1.46 -4.353,-3.522 -5.665,-6.188 -1.311,-2.666 -1.968,-5.703 -1.968,-9.11 v -0.412 c 0,-5.459 1.476,-9.775 4.428,-12.949 2.951,-3.174 6.903,-4.762 11.855,-4.762"
       style="fill:#00a6d6;fill-opacity:1;fill-rule:nonzero;stroke:none"
       transform="matrix(0.35277776,0,0,-0.35277776,-3343.2975,-2485.6728)"
       clip-path="url(#clipPath39)" />
    <path
       id="path40"
       d="m 0,0 c 1.079,2.2 3.058,3.301 5.936,3.301 2.158,0 3.802,-0.867 4.934,-2.603 1.132,-1.735 1.698,-4.2 1.698,-7.395 0,-7.172 -2.189,-10.759 -6.569,-10.759 -2.878,0 -4.878,1.132 -5.999,3.395 z m 46.592,10.125 -6.348,-21.36 -6.379,21.36 h -9.871 l 12.029,-34.437 -1.079,-2.825 c -0.487,-1.226 -1.158,-2.104 -2.015,-2.634 -0.857,-0.528 -2.154,-0.793 -3.888,-0.793 -0.454,0.01 -0.909,0.02 -1.363,0.031 v 0.016 H 0 v 9.285 c 2.137,-2.413 4.94,-3.62 8.411,-3.62 4.083,0 7.326,1.592 9.728,4.778 2.401,3.183 3.602,7.421 3.602,12.711 v 0.476 c 0,5.5 -1.175,9.817 -3.523,12.949 -2.349,3.131 -5.639,4.698 -9.87,4.698 -3.577,0 -6.475,-1.334 -8.697,-4 l -0.317,3.365 h -8.506 v -40.642 h -270.854 v -7.2 H 27.678 c 2.615,0 5.065,0.074 6.821,0.413 2.366,0.458 5.312,1.461 7.364,5.947 l 0.762,1.808 13.806,39.674 z"
       style="fill:#00a6d6;fill-opacity:1;fill-rule:nonzero;stroke:none"
       transform="matrix(0.35277776,0,0,-0.35277776,-3330.4776,-2485.411)"
       clip-path="url(#clipPath41)" />
    <path
       id="path42"
       d="m 0,0 c 0,-2.585 -2.095,-4.68 -4.68,-4.68 -2.585,0 -4.68,2.095 -4.68,4.68 0,2.585 2.095,4.68 4.68,4.68 C -2.095,4.68 0,2.585 0,0"
       style="fill:#00a6d6;fill-opacity:1;fill-rule:nonzero;stroke:none"
       transform="matrix(0.35277776,0,0,-0.35277776,-3405.9483,-2492.4253)"
       clip-path="url(#clipPath43)" />
    <path
       id="path44"
       d="M 369.82,86.4 H 104.4 v 7.2 h 265.42 z"
       style="fill:#00a6d6;fill-opacity:1;fill-rule:nonzero;stroke:none"
       transform="matrix(0.35277776,0,0,-0.35277776,-3440.9864,-2460.6753)"
       clip-path="url(#clipPath45)" />
  </g>
</svg>
